g object1
o object1
v 13.00000000 -0.00000000 6.00000000
v 12.29561517 4.22111924 6.00000000
v 10.25881860 7.98477558 6.00000000
v 7.11032696 10.88316363 6.00000000
v 3.19136792 12.60218913 6.00000000
v -1.07358671 12.95559383 6.00000000
v -5.22204705 11.90505038 6.00000000
v -8.80466245 9.56440898 6.00000000
v -11.43314136 6.18734828 6.00000000
v -12.82268526 2.13979969 6.00000000
v -12.82268526 -2.13979969 6.00000000
v -11.43314136 -6.18734828 6.00000000
v -8.80466245 -9.56440898 6.00000000
v -5.22204705 -11.90505038 6.00000000
v -1.07358671 -12.95559383 6.00000000
v 3.19136792 -12.60218913 6.00000000
v 7.11032696 -10.88316363 6.00000000
v 10.25881860 -7.98477558 6.00000000
v 12.29561517 -4.22111924 6.00000000
v 0.00000291 0.00000000 6.00000000
v 13.00000000 -0.00000000 -6.00000000
v 12.29561517 -4.22111924 -6.00000000
v 10.25881860 -7.98477558 -6.00000000
v 7.11032696 -10.88316363 -6.00000000
v 3.19136792 -12.60218913 -6.00000000
v -1.07358671 -12.95559383 -6.00000000
v -5.22204705 -11.90505038 -6.00000000
v -8.80466245 -9.56440898 -6.00000000
v -11.43314136 -6.18734828 -6.00000000
v -12.82268526 -2.13979969 -6.00000000
v -12.82268526 2.13979969 -6.00000000
v -11.43314136 6.18734828 -6.00000000
v -8.80466245 9.56440898 -6.00000000
v -5.22204705 11.90505038 -6.00000000
v -1.07358671 12.95559383 -6.00000000
v 3.19136792 12.60218913 -6.00000000
v 7.11032696 10.88316363 -6.00000000
v 10.25881860 7.98477558 -6.00000000
v 12.29561517 4.22111924 -6.00000000
v 0.00000291 0.00000000 -6.00000000
vt 0.50000000 0.00000000
vt 0.66235022 0.02709155
vt 0.80710668 0.10542999
vt 0.91858324 0.22652593
vt 0.98469963 0.37725527
vt 0.99829212 0.54129120
vt 0.95788665 0.70084774
vt 0.86786192 0.83864083
vt 0.73797491 0.93973622
vt 0.58229998 0.99318020
vt 0.41770002 0.99318020
vt 0.26202509 0.93973622
vt 0.13213808 0.83864083
vt 0.04211335 0.70084774
vt 0.00170788 0.54129120
vt 0.01530037 0.37725527
vt 0.08141676 0.22652593
vt 0.19289332 0.10542999
vt 0.33764978 0.02709155
vt 0.50000000 0.49999989
vt 0.50000000 0.00000000
vt 0.33764978 0.02709155
vt 0.19289332 0.10542999
vt 0.08141676 0.22652593
vt 0.01530037 0.37725527
vt 0.00170788 0.54129120
vt 0.04211335 0.70084774
vt 0.13213808 0.83864083
vt 0.26202509 0.93973622
vt 0.41770002 0.99318020
vt 0.58229998 0.99318020
vt 0.73797491 0.93973622
vt 0.86786192 0.83864083
vt 0.95788665 0.70084774
vt 0.99829212 0.54129120
vt 0.98469963 0.37725527
vt 0.91858324 0.22652593
vt 0.80710668 0.10542999
vt 0.66235022 0.02709155
vt 0.50000000 0.49999989
vt 0.00000000 0.05518317
vt 0.00000000 0.00000000
vt 1.00000000 0.00000000
vt 1.00000000 0.05518317
vt 1.00000000 0.10626425
vt 0.00000000 0.10626425
vt 1.00000000 0.15629768
vt 0.00000000 0.15629768
vt 1.00000000 0.20809340
vt 0.00000000 0.20809340
vt 1.00000000 0.26437656
vt 0.00000000 0.26437656
vt 1.00000000 0.31820827
vt 0.00000000 0.31820827
vt 1.00000000 0.36876186
vt 0.00000000 0.36876186
vt 1.00000000 0.41896785
vt 0.00000000 0.41896785
vt 1.00000000 0.47167590
vt 0.00000000 0.47167590
vt 1.00000000 0.52832410
vt 0.00000000 0.52832410
vt 1.00000000 0.58103215
vt 0.00000000 0.58103215
vt 1.00000000 0.63123814
vt 0.00000000 0.63123814
vt 1.00000000 0.68179173
vt 0.00000000 0.68179173
vt 1.00000000 0.73562344
vt 0.00000000 0.73562344
vt 1.00000000 0.79190660
vt 0.00000000 0.79190660
vt 1.00000000 0.84370232
vt 0.00000000 0.84370232
vt 1.00000000 0.89373575
vt 0.00000000 0.89373575
vt 1.00000000 0.94481683
vt 0.00000000 0.94481683
vt 1.00000000 1.00000000
vt 0.00000000 1.00000000
vn 0.00000000 0.00000000 1.00000000
vn 0.00000000 0.00000000 1.00000000
vn 0.00000000 0.00000000 1.00000000
vn 0.00000000 0.00000000 1.00000000
vn 0.00000000 0.00000000 1.00000000
vn 0.00000000 0.00000000 1.00000000
vn 0.00000000 0.00000000 1.00000000
vn 0.00000000 0.00000000 1.00000000
vn 0.00000000 0.00000000 1.00000000
vn 0.00000000 0.00000000 1.00000000
vn 0.00000000 0.00000000 1.00000000
vn 0.00000000 0.00000000 1.00000000
vn 0.00000000 0.00000000 1.00000000
vn 0.00000000 0.00000000 1.00000000
vn 0.00000000 0.00000000 1.00000000
vn 0.00000000 0.00000000 1.00000000
vn 0.00000000 0.00000000 1.00000000
vn 0.00000000 0.00000000 1.00000000
vn 0.00000000 0.00000000 1.00000000
vn 0.00000000 0.00000000 1.00000000
vn 0.00000000 0.00000000 -1.00000000
vn 0.00000000 0.00000000 -1.00000000
vn 0.00000000 0.00000000 -1.00000000
vn 0.00000000 0.00000000 -1.00000000
vn 0.00000000 0.00000000 -1.00000000
vn 0.00000000 0.00000000 -1.00000000
vn 0.00000000 0.00000000 -1.00000000
vn 0.00000000 0.00000000 -1.00000000
vn 0.00000000 0.00000000 -1.00000000
vn 0.00000000 0.00000000 -1.00000000
vn 0.00000000 0.00000000 -1.00000000
vn 0.00000000 0.00000000 -1.00000000
vn 0.00000000 0.00000000 -1.00000000
vn 0.00000000 0.00000000 -1.00000000
vn 0.00000000 0.00000000 -1.00000000
vn 0.00000000 0.00000000 -1.00000000
vn 0.00000000 0.00000000 -1.00000000
vn 0.00000000 0.00000000 -1.00000000
vn 0.00000000 0.00000000 -1.00000000
vn 0.00000000 0.00000000 -1.00000000
vn 0.94581761 0.32469839 0.00000000
vn 1.00000000 0.00000000 0.00000000
vn 1.00000000 0.00000000 0.00000000
vn 0.94581761 0.32469839 0.00000000
vn 0.78914064 0.61421254 0.00000000
vn 0.78914064 0.61421254 0.00000000
vn 0.54694805 0.83716655 0.00000000
vn 0.54694805 0.83716655 0.00000000
vn 0.24548506 0.96940038 0.00000000
vn 0.24548506 0.96940038 0.00000000
vn -0.08257813 0.99658459 0.00000000
vn -0.08257813 0.99658459 0.00000000
vn -0.40169494 0.91577354 0.00000000
vn -0.40169494 0.91577354 0.00000000
vn -0.67728149 0.73572399 0.00000000
vn -0.67728149 0.73572399 0.00000000
vn -0.87947380 0.47594730 0.00000000
vn -0.87947380 0.47594730 0.00000000
vn -0.98636131 0.16459453 0.00000000
vn -0.98636131 0.16459453 0.00000000
vn -0.98636131 -0.16459453 0.00000000
vn -0.98636131 -0.16459453 0.00000000
vn -0.87947380 -0.47594730 0.00000000
vn -0.87947380 -0.47594730 0.00000000
vn -0.67728149 -0.73572399 0.00000000
vn -0.67728149 -0.73572399 0.00000000
vn -0.40169494 -0.91577354 0.00000000
vn -0.40169494 -0.91577354 0.00000000
vn -0.08257813 -0.99658459 0.00000000
vn -0.08257813 -0.99658459 0.00000000
vn 0.24548506 -0.96940038 0.00000000
vn 0.24548506 -0.96940038 0.00000000
vn 0.54694805 -0.83716655 0.00000000
vn 0.54694805 -0.83716655 0.00000000
vn 0.78914064 -0.61421254 0.00000000
vn 0.78914064 -0.61421254 0.00000000
vn 0.94581761 -0.32469839 0.00000000
vn 0.94581761 -0.32469839 0.00000000
s 1
f 1/1/1 2/2/2 20/20/20
f 18/18/18 19/19/19 20/20/20
f 17/17/17 18/18/18 20/20/20
f 16/16/16 17/17/17 20/20/20
f 15/15/15 16/16/16 20/20/20
f 14/14/14 15/15/15 20/20/20
f 13/13/13 14/14/14 20/20/20
f 12/12/12 13/13/13 20/20/20
f 11/11/11 12/12/12 20/20/20
f 10/10/10 11/11/11 20/20/20
f 9/9/9 10/10/10 20/20/20
f 8/8/8 9/9/9 20/20/20
f 7/7/7 8/8/8 20/20/20
f 6/6/6 7/7/7 20/20/20
f 5/5/5 6/6/6 20/20/20
f 4/4/4 5/5/5 20/20/20
f 3/3/3 4/4/4 20/20/20
f 2/2/2 3/3/3 20/20/20
f 19/19/19 1/1/1 20/20/20
s 2
f 21/21/21 22/22/22 40/40/40
f 38/38/38 39/39/39 40/40/40
f 37/37/37 38/38/38 40/40/40
f 36/36/36 37/37/37 40/40/40
f 35/35/35 36/36/36 40/40/40
f 34/34/34 35/35/35 40/40/40
f 33/33/33 34/34/34 40/40/40
f 32/32/32 33/33/33 40/40/40
f 31/31/31 32/32/32 40/40/40
f 30/30/30 31/31/31 40/40/40
f 29/29/29 30/30/30 40/40/40
f 28/28/28 29/29/29 40/40/40
f 27/27/27 28/28/28 40/40/40
f 26/26/26 27/27/27 40/40/40
f 25/25/25 26/26/26 40/40/40
f 24/24/24 25/25/25 40/40/40
f 23/23/23 24/24/24 40/40/40
f 22/22/22 23/23/23 40/40/40
f 39/39/39 21/21/21 40/40/40
s 3
f 2/41/41 1/42/42 21/43/43
f 22/77/77 1/80/42 19/78/78
f 23/75/75 19/78/78 18/76/76
f 24/73/73 18/76/76 17/74/74
f 25/71/71 17/74/74 16/72/72
f 26/69/69 16/72/72 15/70/70
f 27/67/67 15/70/70 14/68/68
f 28/65/65 14/68/68 13/66/66
f 29/63/63 13/66/66 12/64/64
f 30/61/61 12/64/64 11/62/62
f 30/61/61 11/62/62 10/60/60
f 31/59/59 10/60/60 9/58/58
f 32/57/57 9/58/58 8/56/56
f 33/55/55 8/56/56 7/54/54
f 34/53/53 7/54/54 6/52/52
f 35/51/51 6/52/52 5/50/50
f 36/49/49 5/50/50 4/48/48
f 37/47/47 4/48/48 3/46/46
f 38/45/45 37/47/47 3/46/46
f 37/47/47 36/49/49 4/48/48
f 36/49/49 35/51/51 5/50/50
f 35/51/51 34/53/53 6/52/52
f 34/53/53 33/55/55 7/54/54
f 33/55/55 32/57/57 8/56/56
f 32/57/57 31/59/59 9/58/58
f 31/59/59 30/61/61 10/60/60
f 30/61/61 29/63/63 12/64/64
f 29/63/63 28/65/65 13/66/66
f 28/65/65 27/67/67 14/68/68
f 27/67/67 26/69/69 15/70/70
f 26/69/69 25/71/71 16/72/72
f 25/71/71 24/73/73 17/74/74
f 24/73/73 23/75/75 18/76/76
f 23/75/75 22/77/77 19/78/78
f 22/77/77 21/79/43 1/80/42
f 38/45/45 3/46/46 2/41/41
f 39/44/44 38/45/45 2/41/41
f 2/41/41 21/43/43 39/44/44
